<?xml version="1.0" encoding="UTF-8"?>
<svg xmlns="http://www.w3.org/2000/svg" width="728" height="270" viewBox="0 0 728 270" fill="none">
  <path d="M82.8111 190.775C78.3922 190.775 74.6927 189.285 71.7125 186.304C68.8351 183.324 67.3964 179.625 67.3964 175.206C67.3964 170.89 68.8865 167.241 71.8667 164.261C74.8468 161.281 78.495 159.791 82.8111 159.791C87.3328 159.791 91.0323 161.281 93.9097 164.261C96.8899 167.241 98.38 170.941 98.38 175.36C98.38 179.676 96.8899 183.324 93.9097 186.304C91.0323 189.285 87.3328 190.775 82.8111 190.775ZM152.409 190.775C145.934 190.775 139.82 189.182 134.065 185.996C128.31 182.81 123.686 178.237 120.192 172.277C116.698 166.214 114.951 158.866 114.951 150.234V95.5116H139.152V146.997C139.152 152.752 140.848 157.838 144.239 162.257C147.733 166.676 152.563 168.886 158.729 168.886C163.867 168.886 168.44 167.036 172.448 163.336C176.456 159.637 178.46 154.344 178.46 147.459V95.5116H202.661V188H180.618V176.901C177.329 181.423 173.219 184.866 168.286 187.229C163.353 189.593 158.061 190.775 152.409 190.775ZM236.193 188V114.934H218.003V95.5116H236.655V64.6821H259.931V95.5116H279.354V114.934H260.394V188H236.193ZM334.765 190.775C325.619 190.775 317.244 188.565 309.639 184.146C302.137 179.727 296.177 173.818 291.758 166.419C287.339 159.02 285.13 150.799 285.13 141.756C285.13 132.712 287.339 124.491 291.758 117.092C296.177 109.693 302.137 103.784 309.639 99.3653C317.244 94.9464 325.568 92.7369 334.611 92.7369C343.86 92.7369 352.235 94.9464 359.737 99.3653C367.239 103.784 373.199 109.693 377.618 117.092C382.14 124.389 384.4 132.61 384.4 141.756C384.4 150.696 382.14 158.918 377.618 166.419C373.199 173.818 367.239 179.727 359.737 184.146C352.235 188.565 343.911 190.775 334.765 190.775ZM334.611 168.886C339.646 168.886 344.168 167.653 348.176 165.186C352.184 162.72 355.369 159.431 357.733 155.321C360.097 151.21 361.278 146.689 361.278 141.756C361.278 136.72 360.097 132.199 357.733 128.191C355.369 124.08 352.184 120.792 348.176 118.325C344.168 115.859 339.646 114.626 334.611 114.626C329.678 114.626 325.208 115.859 321.2 118.325C317.192 120.792 314.006 124.08 311.643 128.191C309.279 132.199 308.097 136.72 308.097 141.756C308.097 146.689 309.279 151.21 311.643 155.321C314.006 159.431 317.192 162.72 321.2 165.186C325.208 167.653 329.678 168.886 334.611 168.886ZM402.07 234.244V95.5116H423.188V105.377C426.887 101.677 431.255 98.7487 436.29 96.5906C441.429 94.4326 446.978 93.3535 452.938 93.3535C461.57 93.3535 469.381 95.563 476.369 99.9819C483.357 104.298 488.906 110.104 493.017 117.401C497.23 124.697 499.337 132.815 499.337 141.756C499.337 150.594 497.23 158.712 493.017 166.111C488.906 173.407 483.357 179.265 476.369 183.684C469.381 188 461.57 190.158 452.938 190.158C447.697 190.158 442.816 189.336 438.294 187.692C433.875 186.047 429.867 183.787 426.271 180.909V234.244H402.07ZM450.009 168.732C454.942 168.732 459.361 167.498 463.266 165.032C467.274 162.566 470.46 159.329 472.823 155.321C475.187 151.21 476.369 146.689 476.369 141.756C476.369 136.823 475.187 132.353 472.823 128.345C470.46 124.234 467.274 120.946 463.266 118.48C459.361 116.013 454.993 114.78 450.164 114.78C445.231 114.78 440.761 116.013 436.753 118.48C432.848 120.946 429.713 124.234 427.35 128.345C424.986 132.353 423.804 136.823 423.804 141.756C423.804 146.689 424.986 151.21 427.35 155.321C429.713 159.329 432.848 162.566 436.753 165.032C440.761 167.498 445.179 168.732 450.009 168.732ZM517.112 188V95.5116H541.313V188H517.112ZM529.289 81.33C525.487 81.33 522.25 80.0455 519.578 77.4763C517.009 74.8045 515.724 71.5674 515.724 67.7651C515.724 63.86 517.009 60.6229 519.578 58.0538C522.25 55.4847 525.487 54.2001 529.289 54.2001C533.194 54.2001 536.431 55.4847 539.001 58.0538C541.57 60.6229 542.854 63.86 542.854 67.7651C542.854 71.5674 541.57 74.8045 539.001 77.4763C536.431 80.0455 533.194 81.33 529.289 81.33ZM605.217 190.158C596.79 190.158 589.082 188 582.094 183.684C575.106 179.265 569.506 173.407 565.292 166.111C561.182 158.712 559.126 150.594 559.126 141.756C559.126 132.918 561.182 124.851 565.292 117.555C569.506 110.156 575.106 104.298 582.094 99.9819C589.082 95.563 596.79 93.3535 605.217 93.3535C611.28 93.3535 616.88 94.4326 622.019 96.5906C627.157 98.7487 631.524 101.78 635.121 105.685V95.5116H656.239V188H635.121V177.826C631.524 181.629 627.157 184.66 622.019 186.921C616.88 189.079 611.28 190.158 605.217 190.158ZM608.145 168.732C613.078 168.732 617.497 167.498 621.402 165.032C625.41 162.566 628.596 159.329 630.959 155.321C633.323 151.21 634.505 146.689 634.505 141.756C634.505 136.823 633.323 132.353 630.959 128.345C628.596 124.234 625.41 120.946 621.402 118.48C617.497 116.013 613.129 114.78 608.299 114.78C603.367 114.78 598.896 116.013 594.889 118.48C590.984 120.946 587.849 124.234 585.486 128.345C583.122 132.353 581.94 136.823 581.94 141.756C581.94 146.689 583.122 151.21 585.486 155.321C587.849 159.329 590.984 162.566 594.889 165.032C598.896 167.498 603.315 168.732 608.145 168.732Z" fill="#1C1B1C"></path>
</svg>
