<?xml version="1.0" encoding="UTF-8"?>
<svg xmlns="http://www.w3.org/2000/svg" width="280" height="82" viewBox="0 0 280 82" fill="none">
  <path d="M46.8613 23.9258H60.6113L36.71 80H23.9805L0.0791016 23.9258H14.2051L30.4795 64.7998L46.8613 23.9258ZM118.555 52.0703C118.555 53.7174 118.447 55.3288 118.232 56.9043H72.793C73.7956 60.9505 75.9082 64.1911 79.1309 66.626C82.3893 69.0251 86.2923 70.2246 90.8398 70.2246C94.349 70.2246 97.6074 69.4906 100.615 68.0225C103.659 66.5544 106.022 64.7103 107.705 62.4902L116.03 69.6338C113.13 73.2861 109.442 76.1507 104.966 78.2275C100.526 80.3044 95.7096 81.3428 90.5176 81.3428C81.6374 81.3428 74.2432 78.514 68.335 72.8564C62.4626 67.1989 59.5264 60.1628 59.5264 51.748C59.5264 46.3053 60.8154 41.3639 63.3936 36.9238C65.9717 32.4479 69.5166 28.9388 74.0283 26.3965C78.5758 23.8542 83.6068 22.583 89.1211 22.583C97.5358 22.583 104.536 25.3939 110.122 31.0156C115.744 36.6016 118.555 43.6198 118.555 52.0703ZM89.0137 33.7012C85.0391 33.7012 81.5658 34.9007 78.5938 37.2998C75.6576 39.6989 73.6882 42.8678 72.6855 46.8066H105.396C104.465 42.8678 102.495 39.6989 99.4873 37.2998C96.5153 34.9007 93.0241 33.7012 89.0137 33.7012ZM145.561 81.3428C136.537 81.3428 128.767 78.4782 122.25 72.749L128.642 64.0479C133.261 68.4521 138.829 70.6543 145.346 70.6543C148.604 70.6543 151.272 70.1172 153.349 69.043C155.425 67.9329 156.464 66.4111 156.464 64.4775C156.464 63.6182 156.231 62.8483 155.766 62.168C155.336 61.4876 154.799 60.9147 154.154 60.4492C153.546 59.9837 152.632 59.5361 151.415 59.1064C150.198 58.6768 149.123 58.3366 148.192 58.0859C147.297 57.8353 146.026 57.513 144.379 57.1191C142.732 56.7253 141.389 56.403 140.351 56.1523C139.312 55.8659 138.005 55.4541 136.43 54.917C134.854 54.3799 133.547 53.8428 132.509 53.3057C131.506 52.7686 130.414 52.0524 129.232 51.1572C128.051 50.262 127.12 49.2952 126.439 48.2568C125.759 47.2184 125.186 45.9831 124.721 44.5508C124.255 43.1185 124.022 41.543 124.022 39.8242C124.022 36.1003 125.061 32.9134 127.138 30.2637C129.215 27.6139 131.9 25.6803 135.194 24.4629C138.489 23.2096 142.213 22.583 146.366 22.583C154.566 22.583 161.674 25.0716 167.689 30.0488L161.19 38.75C156.894 35.0977 152.024 33.2715 146.581 33.2715C143.681 33.2715 141.282 33.7549 139.384 34.7217C137.522 35.6885 136.591 37.1029 136.591 38.9648C136.591 39.681 136.716 40.3255 136.967 40.8984C137.217 41.4714 137.647 41.9906 138.256 42.4561C138.9 42.9215 139.509 43.3154 140.082 43.6377C140.655 43.96 141.496 44.3001 142.606 44.6582C143.752 44.9805 144.701 45.249 145.453 45.4639C146.241 45.6429 147.351 45.8936 148.783 46.2158C150.395 46.5739 151.719 46.8962 152.758 47.1826C153.832 47.4333 155.139 47.8271 156.679 48.3643C158.254 48.8656 159.561 49.4027 160.6 49.9756C161.638 50.5127 162.73 51.2288 163.876 52.124C165.022 52.9834 165.935 53.9323 166.615 54.9707C167.331 55.9733 167.904 57.1908 168.334 58.623C168.799 60.0553 169.032 61.613 169.032 63.2959C169.032 67.0557 167.976 70.332 165.863 73.125C163.751 75.8822 160.94 77.9411 157.431 79.3018C153.957 80.6624 150.001 81.3428 145.561 81.3428ZM176.756 80V0.776367H189.109V80H176.756ZM227.609 81.3428C219.051 81.3428 211.908 78.5319 206.179 72.9102C200.45 67.2884 197.585 60.306 197.585 51.9629C197.585 43.6198 200.45 36.6374 206.179 31.0156C211.908 25.3939 219.051 22.583 227.609 22.583C233.195 22.583 238.28 23.8721 242.863 26.4502C247.482 28.9925 251.099 32.5195 253.713 37.0312C256.327 41.5072 257.634 46.4844 257.634 51.9629C257.634 57.4414 256.327 62.4365 253.713 66.9482C251.099 71.4242 247.482 74.9512 242.863 77.5293C238.28 80.0716 233.195 81.3428 227.609 81.3428ZM215.202 64.4238C218.532 67.7539 222.668 69.4189 227.609 69.4189C232.551 69.4189 236.651 67.7539 239.909 64.4238C243.203 61.0579 244.851 56.9043 244.851 51.9629C244.851 46.9857 243.203 42.832 239.909 39.502C236.651 36.1361 232.551 34.4531 227.609 34.4531C222.668 34.4531 218.532 36.1361 215.202 39.502C211.872 42.8678 210.207 47.0215 210.207 51.9629C210.207 56.9043 211.872 61.0579 215.202 64.4238ZM270.245 80.8594C267.774 80.8594 265.68 80.0358 263.961 78.3887C262.278 76.7415 261.437 74.6826 261.437 72.2119C261.437 69.7412 262.278 67.6644 263.961 65.9814C265.68 64.2627 267.774 63.4033 270.245 63.4033C272.752 63.4033 274.846 64.2627 276.529 65.9814C278.212 67.6644 279.054 69.7412 279.054 72.2119C279.054 74.6826 278.212 76.7415 276.529 78.3887C274.846 80.0358 272.752 80.8594 270.245 80.8594Z" fill="#17262D"></path>
</svg>
